<svg width="26" height="28" viewBox="0 0 26 28" fill="none" xmlns="http://www.w3.org/2000/svg">
<path d="M19.5 3.74L18.5 5.47C20.5971 6.68074 22.236 8.54961 23.1627 10.7868C24.0893 13.0239 24.2519 15.5043 23.6252 17.8433C22.9985 20.1823 21.6175 22.2491 19.6964 23.7232C17.7753 25.1973 15.4215 25.9963 13 25.9963C10.5785 25.9963 8.22472 25.1973 6.30363 23.7232C4.38254 22.2491 3.00154 20.1823 2.37482 17.8433C1.7481 15.5043 1.91067 13.0239 2.83733 10.7868C3.76399 8.54961 5.40294 6.68074 7.5 5.47L6.5 3.74C4.02166 5.17087 2.08471 7.37954 0.989571 10.0234C-0.105572 12.6674 -0.297705 15.5987 0.442969 18.363C1.18364 21.1272 2.81573 23.5698 5.08611 25.3119C7.35648 27.054 10.1383 27.9983 13 27.9983C15.8617 27.9983 18.6435 27.054 20.9139 25.3119C23.1843 23.5698 24.8164 21.1272 25.557 18.363C26.2977 15.5987 26.1056 12.6674 25.0104 10.0234C23.9153 7.37954 21.9783 5.17087 19.5 3.74Z" fill="#EDF5FF"/>
<path d="M14 0H12V14H14V0Z" fill="#EDF5FF"/>
</svg>
